<svg width="133" height="17" viewBox="0 0 133 17" fill="none" xmlns="http://www.w3.org/2000/svg">
<path d="M5.44531 16.4922C4.91406 16.4922 4.38281 16.3984 3.85156 16.2109C3.33594 16.0234 2.83594 15.75 2.35156 15.3906C1.86719 15.0156 1.44531 14.5234 1.08594 13.9141C0.726562 13.3047 0.53125 12.5781 0.5 11.7344V3.27344C0.5 2.83594 0.65625 2.47656 0.96875 2.19531C1.29688 1.89844 1.67969 1.75 2.11719 1.75C3.05469 1.82812 3.5625 2.33594 3.64062 3.27344V11.5469C3.65625 11.9219 3.73438 12.2422 3.875 12.5078C4.01562 12.7578 4.17188 12.9609 4.34375 13.1172C4.51562 13.2578 4.6875 13.3672 4.85938 13.4453C5.04688 13.5078 5.23438 13.5391 5.42188 13.5391C5.60938 13.5391 5.79688 13.5078 5.98438 13.4453C6.17188 13.3672 6.35156 13.2578 6.52344 13.1172C6.69531 12.9609 6.85156 12.7578 6.99219 12.5078C7.13281 12.2422 7.20312 11.9219 7.20312 11.5469V3.27344C7.20312 2.83594 7.35938 2.47656 7.67188 2.19531C8 1.89844 8.38281 1.75 8.82031 1.75C9.75781 1.82812 10.2734 2.33594 10.3672 3.27344V11.5469C10.3828 11.9219 10.4609 12.2344 10.6016 12.4844C10.7422 12.75 10.8984 12.9609 11.0703 13.1172C11.2422 13.2578 11.4141 13.3672 11.5859 13.4453C11.7734 13.5078 11.9609 13.5391 12.1484 13.5391C12.3359 13.5391 12.5234 13.5078 12.7109 13.4453C12.8984 13.3672 13.0781 13.2578 13.25 13.1172C13.4219 12.9609 13.5781 12.7578 13.7188 12.5078C13.8594 12.2422 13.9297 11.9219 13.9297 11.5469V3.27344C13.9297 2.83594 14.0859 2.47656 14.3984 2.19531C14.7266 1.89844 15.1094 1.75 15.5469 1.75C16.4844 1.82812 17 2.33594 17.0938 3.27344V11.7344C17.0938 12.5781 16.9062 13.3047 16.5312 13.9141C16.1719 14.5234 15.75 15.0156 15.2656 15.3906C14.7969 15.75 14.2969 16.0234 13.7656 16.2109C13.25 16.3984 12.7188 16.4922 12.1719 16.4922C11.6406 16.4922 11.1094 16.3984 10.5781 16.2109C10.0625 16.0234 9.5625 15.7422 9.07812 15.3672C8.98438 15.3047 8.89844 15.2344 8.82031 15.1562C8.72656 15.2344 8.64062 15.3047 8.5625 15.3672C8.07812 15.7422 7.57031 16.0234 7.03906 16.2109C6.52344 16.3984 5.99219 16.4922 5.44531 16.4922ZM33.2656 14.7109V9.0625C33.2656 8.67188 33.0625 8.46875 32.6562 8.45312H24.4531C24.1562 8.46875 23.8984 8.60156 23.6797 8.85156C23.4609 9.08594 23.2969 9.36719 23.1875 9.69531C23.0938 10.0078 23.0469 10.3281 23.0469 10.6562C23.0469 10.9688 23.0938 11.2891 23.1875 11.6172C23.2969 11.9297 23.4609 12.2109 23.6797 12.4609C23.8984 12.6953 24.1562 12.8125 24.4531 12.8125H30.4531C30.8906 12.8125 31.2578 12.9688 31.5547 13.2812C31.8672 13.5781 32.0234 13.9453 32.0234 14.3828C32.0234 14.8203 31.8672 15.1875 31.5547 15.4844C31.2578 15.7969 30.8906 15.9531 30.4531 15.9531H24.5469C23.4531 15.9375 22.5469 15.6328 21.8281 15.0391C21.125 14.4297 20.6172 13.75 20.3047 13C20.0078 12.2344 19.8594 11.4453 19.8594 10.6328C19.8594 9.85156 20.0156 9.08594 20.3281 8.33594C20.6406 7.57031 21.1484 6.89062 21.8516 6.29688C22.5547 5.6875 23.5938 5.35938 24.9688 5.3125H34.8125C35.25 5.3125 35.625 5.46094 35.9375 5.75781C36.25 6.03906 36.4141 6.39844 36.4297 6.83594V14.7109C36.4297 15.1484 36.2656 15.5156 35.9375 15.8125C35.625 16.0938 35.25 16.2344 34.8125 16.2344C33.875 16.1562 33.3594 15.6484 33.2656 14.7109ZM39.9453 8.26562C40.2422 7.51562 40.7422 6.84375 41.4453 6.25C42.1641 5.64062 43.0703 5.32812 44.1641 5.3125H52.9766C53.4141 5.3125 53.7812 5.46875 54.0781 5.78125C54.3906 6.07812 54.5469 6.44531 54.5469 6.88281C54.5469 7.32031 54.3906 7.69531 54.0781 8.00781C53.7812 8.30469 53.4141 8.45312 52.9766 8.45312H44.0703C43.7734 8.45312 43.5156 8.57812 43.2969 8.82812C43.0781 9.0625 42.9062 9.34375 42.7812 9.67188C42.6719 10 42.6172 10.3125 42.6172 10.6094V14.7109C42.5234 15.6484 42.0078 16.1562 41.0703 16.2344C40.6328 16.2344 40.25 16.0938 39.9219 15.8125C39.6094 15.5156 39.4531 15.1484 39.4531 14.7109V10.6328H39.4766C39.4766 9.82031 39.6328 9.03125 39.9453 8.26562ZM61.6719 15.9531C60.2969 15.9062 59.2578 15.5859 58.5547 14.9922C57.8516 14.3828 57.3438 13.7031 57.0312 12.9531C56.7188 12.1875 56.5625 11.4141 56.5625 10.6328C56.5625 9.82031 56.7109 9.03906 57.0078 8.28906C57.3203 7.52344 57.8281 6.84375 58.5312 6.25C59.25 5.64062 60.1562 5.32812 61.25 5.3125H70.1562C70.5938 5.3125 70.9609 5.46094 71.2578 5.75781C71.5703 6.03906 71.7266 6.38281 71.7266 6.78906C71.7266 7.21094 71.5703 7.57031 71.2578 7.86719C70.9609 8.14844 70.5938 8.28906 70.1562 8.28906H61.3906C61.0469 8.28906 60.7422 8.40625 60.4766 8.64062C60.2266 8.875 60.0391 9.17969 59.9141 9.55469C59.8047 9.92969 59.75 10.2969 59.75 10.6562C59.75 11.0469 59.8047 11.4297 59.9141 11.8047C60.0391 12.1797 60.2266 12.4844 60.4766 12.7188C60.7422 12.9375 61.0469 13.0547 61.3906 13.0703H70.1562C70.5938 13.0703 70.9609 13.2109 71.2578 13.4922C71.5703 13.7734 71.7266 14.1094 71.7266 14.5C71.7266 14.9062 71.5703 15.25 71.2578 15.5312C70.9609 15.8125 70.5938 15.9531 70.1562 15.9531H61.6719ZM71.4453 10.5859C71.4453 10.8828 71.3125 11.1406 71.0469 11.3594C70.8125 11.5625 70.5156 11.6641 70.1562 11.6641H62.4922C62.1328 11.6641 61.8281 11.5625 61.5781 11.3594C61.3281 11.1406 61.2031 10.8828 61.2031 10.5859C61.2031 10.3047 61.3281 10.0547 61.5781 9.83594C61.8281 9.63281 62.1328 9.53125 62.4922 9.53125H70.1562C70.5156 9.53125 70.8203 9.64062 71.0703 9.85938C71.3203 10.0625 71.4453 10.3047 71.4453 10.5859Z" fill="black"/>
<path d="M78.8984 14.7109C78.1797 13.6328 77.4609 12.2188 76.7422 10.4688L74.1641 3.8125C74.0859 3.64062 74.0391 3.45312 74.0234 3.25C73.9922 2.8125 74.1172 2.4375 74.3984 2.125C74.6953 1.8125 75.0703 1.65625 75.5234 1.65625C76.0078 1.65625 76.3672 1.76562 76.6016 1.98438C76.8516 2.1875 77.0547 2.45312 77.2109 2.78125L79.4375 8.875C79.6875 9.51562 79.9297 10.125 80.1641 10.7031C80.4141 11.2656 80.6875 11.7812 80.9844 12.25C81.2812 12.7188 81.6172 12.9688 81.9922 13C82.3516 12.9688 82.6719 12.7188 82.9531 12.25C83.2656 11.7812 83.5391 11.2656 83.7734 10.7031C84.0234 10.125 84.2734 9.51562 84.5234 8.875L86.7031 2.78125C86.8594 2.45312 87.0547 2.1875 87.2891 1.98438C87.5391 1.76562 87.9219 1.65625 88.4375 1.65625C88.8906 1.65625 89.2578 1.8125 89.5391 2.125C89.8359 2.4375 89.9688 2.8125 89.9375 3.25C89.9219 3.45312 89.875 3.64062 89.7969 3.8125L87.2188 10.4688C86.5 12.25 85.7812 13.6719 85.0625 14.7344C84.3594 15.7812 83.3359 16.3125 81.9922 16.3281C80.6328 16.3125 79.6016 15.7734 78.8984 14.7109ZM93.9688 5.07812C94.3906 5.09375 94.75 5.25 95.0469 5.54688C95.3438 5.82812 95.5 6.17969 95.5156 6.60156V14.7109C95.4219 15.6484 94.9062 16.1562 93.9688 16.2344C93.5312 16.2344 93.1484 16.0938 92.8203 15.8125C92.5078 15.5156 92.3516 15.1484 92.3516 14.7109V6.60156C92.3672 6.16406 92.5312 5.80469 92.8438 5.52344C93.1562 5.22656 93.5312 5.07812 93.9688 5.07812ZM92 2.03125C92 1.59375 92.1875 1.21875 92.5625 0.90625C92.9375 0.59375 93.3906 0.4375 93.9219 0.4375C94.4531 0.4375 94.9062 0.59375 95.2812 0.90625C95.6562 1.21875 95.8438 1.59375 95.8438 2.03125C95.8438 2.48438 95.6562 2.86719 95.2812 3.17969C94.9062 3.49219 94.4531 3.64844 93.9219 3.64844C93.3906 3.64844 92.9375 3.49219 92.5625 3.17969C92.1875 2.86719 92 2.48438 92 2.03125ZM103.18 15.9531C101.805 15.9062 100.766 15.5859 100.062 14.9922C99.3594 14.3828 98.8516 13.7031 98.5391 12.9531C98.2266 12.1875 98.0703 11.4141 98.0703 10.6328C98.0703 9.82031 98.2188 9.03906 98.5156 8.28906C98.8281 7.52344 99.3359 6.84375 100.039 6.25C100.758 5.64062 101.664 5.32812 102.758 5.3125H111.664C112.102 5.3125 112.469 5.46094 112.766 5.75781C113.078 6.03906 113.234 6.38281 113.234 6.78906C113.234 7.21094 113.078 7.57031 112.766 7.86719C112.469 8.14844 112.102 8.28906 111.664 8.28906H102.898C102.555 8.28906 102.25 8.40625 101.984 8.64062C101.734 8.875 101.547 9.17969 101.422 9.55469C101.312 9.92969 101.258 10.2969 101.258 10.6562C101.258 11.0469 101.312 11.4297 101.422 11.8047C101.547 12.1797 101.734 12.4844 101.984 12.7188C102.25 12.9375 102.555 13.0547 102.898 13.0703H111.664C112.102 13.0703 112.469 13.2109 112.766 13.4922C113.078 13.7734 113.234 14.1094 113.234 14.5C113.234 14.9062 113.078 15.25 112.766 15.5312C112.469 15.8125 112.102 15.9531 111.664 15.9531H103.18ZM112.953 10.5859C112.953 10.8828 112.82 11.1406 112.555 11.3594C112.32 11.5625 112.023 11.6641 111.664 11.6641H104C103.641 11.6641 103.336 11.5625 103.086 11.3594C102.836 11.1406 102.711 10.8828 102.711 10.5859C102.711 10.3047 102.836 10.0547 103.086 9.83594C103.336 9.63281 103.641 9.53125 104 9.53125H111.664C112.023 9.53125 112.328 9.64062 112.578 9.85938C112.828 10.0625 112.953 10.3047 112.953 10.5859ZM120.898 16.2578C120.367 16.2578 119.836 16.1641 119.305 15.9766C118.789 15.7891 118.289 15.5156 117.805 15.1562C117.32 14.7812 116.898 14.2891 116.539 13.6797C116.18 13.0703 115.984 12.3438 115.953 11.5V6.50781C115.953 6.07031 116.109 5.71094 116.422 5.42969C116.75 5.13281 117.133 4.98438 117.57 4.98438C118.508 5.0625 119.016 5.57031 119.094 6.50781V11.3125C119.109 11.6875 119.188 12.0078 119.328 12.2734C119.469 12.5234 119.625 12.7266 119.797 12.8828C119.969 13.0234 120.141 13.1328 120.312 13.2109C120.5 13.2734 120.688 13.3047 120.875 13.3047C121.062 13.3047 121.25 13.2734 121.438 13.2109C121.625 13.1328 121.805 13.0234 121.977 12.8828C122.148 12.7266 122.305 12.5234 122.445 12.2734C122.586 12.0078 122.656 11.6875 122.656 11.3125V6.50781C122.656 6.07031 122.812 5.71094 123.125 5.42969C123.453 5.13281 123.836 4.98438 124.273 4.98438C125.211 5.0625 125.727 5.57031 125.82 6.50781V11.3125C125.836 11.6875 125.914 12 126.055 12.25C126.195 12.5156 126.352 12.7266 126.523 12.8828C126.695 13.0234 126.867 13.1328 127.039 13.2109C127.227 13.2734 127.414 13.3047 127.602 13.3047C127.789 13.3047 127.977 13.2734 128.164 13.2109C128.352 13.1328 128.531 13.0234 128.703 12.8828C128.875 12.7266 129.031 12.5234 129.172 12.2734C129.312 12.0078 129.383 11.6875 129.383 11.3125V6.50781C129.383 6.07031 129.539 5.71094 129.852 5.42969C130.18 5.13281 130.562 4.98438 131 4.98438C131.938 5.0625 132.453 5.57031 132.547 6.50781V11.5C132.547 12.3438 132.359 13.0703 131.984 13.6797C131.625 14.2891 131.203 14.7812 130.719 15.1562C130.25 15.5156 129.75 15.7891 129.219 15.9766C128.703 16.1641 128.172 16.2578 127.625 16.2578C127.094 16.2578 126.562 16.1641 126.031 15.9766C125.516 15.7891 125.016 15.5078 124.531 15.1328C124.438 15.0703 124.352 15 124.273 14.9219C124.18 15 124.094 15.0703 124.016 15.1328C123.531 15.5078 123.023 15.7891 122.492 15.9766C121.977 16.1641 121.445 16.2578 120.898 16.2578Z" fill="#04B4FC"/>
</svg>
